<svg width="24" height="24" viewBox="0 0 24 24" fill="none" xmlns="http://www.w3.org/2000/svg">
<path fill-rule="evenodd" clip-rule="evenodd" d="M6.40156 5.16667C5.07608 5.16667 4.00156 6.22999 4.00156 7.54167L4 19.625C4 20.9367 5.07452 22 6.4 22H14.4C15.7255 22 16.8 20.9367 16.8 19.625V18.8333H17.6C18.9255 18.8333 20 17.77 20 16.4583L20.0016 4.375C20.0016 3.06332 18.927 2 17.6016 2H9.60156C8.27608 2 7.20156 3.06332 7.20156 4.375V5.16667H6.40156ZM6.40156 6.75H14.4016C14.8434 6.75 15.2016 7.10444 15.2016 7.54167L15.2 19.625C15.2 20.0622 14.8418 20.4167 14.4 20.4167H6.4C5.95817 20.4167 5.6 20.0622 5.6 19.625L5.60156 7.54167C5.60156 7.10444 5.95974 6.75 6.40156 6.75ZM16.8016 7.54167C16.8016 6.22999 15.727 5.16667 14.4016 5.16667H8.80156V4.375C8.80156 3.93777 9.15973 3.58333 9.60156 3.58333H17.6016C18.0434 3.58333 18.4016 3.93777 18.4016 4.375L18.4 16.4583C18.4 16.8956 18.0418 17.25 17.6 17.25H16.8L16.8016 7.54167Z" fill="#00487D"/>
</svg>
