<svg width="18" height="18" viewBox="0 0 18 18" fill="none" xmlns="http://www.w3.org/2000/svg">
<path d="M17 5.1917C17.0006 5.08642 16.9804 4.98206 16.9406 4.8846C16.9008 4.78714 16.8421 4.69849 16.768 4.62374L13.376 1.232C13.3012 1.15786 13.2126 1.0992 13.1151 1.05939C13.0176 1.01958 12.9133 0.999405 12.808 1.00001C12.7027 0.999405 12.5983 1.01958 12.5009 1.05939C12.4034 1.0992 12.3147 1.15786 12.24 1.232L9.976 3.49583L1.23201 12.2392C1.15787 12.3139 1.09921 12.4026 1.0594 12.5C1.01958 12.5975 0.999405 12.7019 1.00001 12.8071V16.1989C1.00001 16.411 1.0843 16.6145 1.23433 16.7645C1.38436 16.9145 1.58784 16.9988 1.80001 16.9988H5.19201C5.30395 17.0049 5.41592 16.9874 5.52066 16.9474C5.6254 16.9075 5.72057 16.8459 5.80001 16.7668L14.496 8.02349L16.768 5.79965C16.841 5.72213 16.9005 5.63289 16.944 5.53567C16.9875 5.43846 16.9995 5.27567 17 5.1917ZM4.86401 15.3989H2.60001V13.1351L10.544 5.1917L12.808 7.45553L4.86401 15.3989ZM13.936 6.32762L11.672 4.06378L12.808 2.93587L15.064 5.1917L13.936 6.32762Z" fill="#00487D"/>
</svg>
