<svg width="88" height="80" viewBox="0 0 88 80" fill="none" xmlns="http://www.w3.org/2000/svg">
<path opacity="0.1" d="M56.2883 79.1726C93.114 72.7026 97.5618 36.2719 71.2195 10.989C44.7874 -14.3801 0 6.01234 0 53.2932C0.00072424 78.1768 39.7081 82.0856 56.2883 79.1726Z" fill="#76BC21"/>
<path d="M41.2929 42.7929C40.9024 43.1834 40.9024 43.8166 41.2929 44.2071C41.6834 44.5976 42.3166 44.5976 42.7071 44.2071L41.2929 42.7929ZM50.75 29L50.0429 28.2929L49.75 28.5858V29H50.75ZM54.75 25H55.75V22.5858L54.0429 24.2929L54.75 25ZM59.5 30.75L60.2071 31.4571L61.9142 29.75H59.5V30.75ZM55.5 34.75V35.75H55.9142L56.2071 35.4571L55.5 34.75ZM45.6926 31.5786C46.2181 31.7484 46.7818 31.4599 46.9516 30.9344C47.1214 30.4089 46.8329 29.8452 46.3074 29.6754L45.6926 31.5786ZM55.3246 38.6926C55.1548 38.1671 54.5911 37.8786 54.0656 38.0484C53.5401 38.2182 53.2516 38.7819 53.4214 39.3074L55.3246 38.6926ZM42.7071 44.2071L51.4571 35.4571L50.0429 34.0429L41.2929 42.7929L42.7071 44.2071ZM51.75 34.75V29H49.75V34.75H51.75ZM51.4571 29.7071L55.4571 25.7071L54.0429 24.2929L50.0429 28.2929L51.4571 29.7071ZM51.4571 35.4571L55.4571 31.4571L54.0429 30.0429L50.0429 34.0429L51.4571 35.4571ZM55.4571 31.4571L60.2071 26.7071L58.7929 25.2929L54.0429 30.0429L55.4571 31.4571ZM53.75 25V30.75H55.75V25H53.75ZM54.75 31.75H59.5V29.75H54.75V31.75ZM58.7929 30.0429L54.7929 34.0429L56.2071 35.4571L60.2071 31.4571L58.7929 30.0429ZM55.5 33.75H50.75V35.75H55.5V33.75ZM54 43C54 49.6274 48.6274 55 42 55V57C49.732 57 56 50.732 56 43H54ZM42 55C35.3726 55 30 49.6274 30 43H28C28 50.732 34.268 57 42 57V55ZM30 43C30 36.3726 35.3726 31 42 31V29C34.268 29 28 35.268 28 43H30ZM42 31C43.29 31 44.5306 31.2032 45.6926 31.5786L46.3074 29.6754C44.9492 29.2366 43.5012 29 42 29V31ZM53.4214 39.3074C53.7968 40.4694 54 41.71 54 43H56C56 41.4988 55.7634 40.0508 55.3246 38.6926L53.4214 39.3074ZM49 43C49 46.866 45.866 50 42 50V52C46.9706 52 51 47.9706 51 43H49ZM42 50C38.134 50 35 46.866 35 43H33C33 47.9706 37.0294 52 42 52V50ZM35 43C35 39.134 38.134 36 42 36V34C37.0294 34 33 38.0294 33 43H35ZM42 36C45.866 36 49 39.134 49 43H51C51 38.0294 46.9706 34 42 34V36Z" fill="#76BC21"/>
</svg>
