<svg width="89" height="80" viewBox="0 0 89 80" fill="none" xmlns="http://www.w3.org/2000/svg">
<path opacity="0.1" d="M83.955 52.7333C100.444 19.906 69.4356 -2.40549 33.2194 0.207589C-5.63874 3.01128 -11.5775 63.459 24.5541 76.1332C60.6856 88.8075 76.5309 67.5134 83.955 52.7333Z" fill="#3A8DDE"/>
<path d="M57.9199 30.42C57.734 30.2325 57.5128 30.0837 57.2691 29.9822C57.0253 29.8806 56.7639 29.8284 56.4999 29.8284C56.2359 29.8284 55.9745 29.8806 55.7307 29.9822C55.487 30.0837 55.2658 30.2325 55.0799 30.42L40.1799 45.34L33.9199 39.06C33.7269 38.8735 33.499 38.7269 33.2493 38.6285C32.9996 38.53 32.7329 38.4818 32.4645 38.4864C32.1962 38.4911 31.9314 38.5485 31.6852 38.6555C31.4391 38.7625 31.2164 38.9169 31.0299 39.11C30.8434 39.303 30.6968 39.5309 30.5984 39.7806C30.5 40.0303 30.4517 40.297 30.4564 40.5653C30.461 40.8337 30.5185 41.0985 30.6254 41.3447C30.7324 41.5908 30.8869 41.8135 31.0799 42L38.7599 49.68C38.9458 49.8674 39.167 50.0162 39.4107 50.1177C39.6545 50.2193 39.9159 50.2716 40.1799 50.2716C40.4439 50.2716 40.7053 50.2193 40.9491 50.1177C41.1928 50.0162 41.414 49.8674 41.5999 49.68L57.9199 33.36C58.1229 33.1727 58.2849 32.9454 58.3957 32.6924C58.5066 32.4394 58.5638 32.1662 58.5638 31.89C58.5638 31.6138 58.5066 31.3406 58.3957 31.0876C58.2849 30.8346 58.1229 30.6073 57.9199 30.42Z" fill="#00487D"/>
</svg>
