<?xml version="1.0" encoding="UTF-8"?>
<svg xmlns="http://www.w3.org/2000/svg" width="88" height="80" viewBox="0 0 88 80" fill="none">
  <path opacity="0.1" d="M83.3387 52.8605C99.5824 20.1862 71.0725 -4.10613 33.3592 0.579653C-8.22622 5.74654 -10.7701 63.5361 24.823 76.1513C60.4161 88.7664 76.0252 67.5716 83.3387 52.8605Z" fill="#FF671D"></path>
  <path d="M32 42.1002H33V41.6744L32.693 41.3793L32 42.1002ZM32 49.5H31V51.2822L32.5211 50.3535L32 49.5ZM38.5 45.5314L38.7342 44.5593L38.332 44.4623L37.9789 44.6779L38.5 45.5314ZM56.6667 48.2614L55.9747 47.5394L55.6667 47.8347V48.2614H56.6667ZM56.6667 54L56.1467 54.8542L57.6667 55.7795V54H56.6667ZM51.6111 50.9224L52.1311 50.0682L51.7787 49.8536L51.3775 49.95L51.6111 50.9224ZM58.8423 39.1307C58.5538 38.6598 57.9382 38.5119 57.4672 38.8003C56.9963 39.0888 56.8483 39.7045 57.1368 40.1754L58.8423 39.1307ZM41.0253 47.5394C40.6265 47.1573 39.9935 47.1708 39.6114 47.5695C39.2292 47.9682 39.2427 48.6013 39.6414 48.9834L41.0253 47.5394ZM55 35.5C55 40.5274 49.652 45 42.5 45V47C50.2597 47 57 42.0706 57 35.5H55ZM30 35.5C30 30.4726 35.348 26 42.5 26V24C34.7403 24 28 28.9294 28 35.5H30ZM42.5 26C49.652 26 55 30.4726 55 35.5H57C57 28.9294 50.2597 24 42.5 24V26ZM32.693 41.3793C30.9789 39.7317 30 37.6845 30 35.5H28C28 38.3165 29.2687 40.862 31.307 42.8212L32.693 41.3793ZM31 42.1002V49.5H33V42.1002H31ZM42.5 45C41.1857 45 39.921 44.8452 38.7342 44.5593L38.2658 46.5036C39.6069 46.8268 41.029 47 42.5 47V45ZM32.5211 50.3535L39.0211 46.3849L37.9789 44.6779L31.4789 48.6465L32.5211 50.3535ZM57.3586 48.9834C58.9801 47.4294 60 45.3991 60 43.1429H58C58 44.765 57.2718 46.2964 55.9747 47.5394L57.3586 48.9834ZM55.6667 48.2614V54H57.6667V48.2614H55.6667ZM48.5 52.2857C49.6613 52.2857 50.7846 52.1494 51.8447 51.8947L51.3775 49.95C50.4715 50.1677 49.505 50.2857 48.5 50.2857V52.2857ZM57.1867 53.1458L52.1311 50.0682L51.0911 51.7765L56.1467 54.8542L57.1867 53.1458ZM60 43.1429C60 41.6947 59.5784 40.3324 58.8423 39.1307L57.1368 40.1754C57.6965 41.0891 58 42.0933 58 43.1429H60ZM39.6414 48.9834C41.7731 51.0263 44.9736 52.2857 48.5 52.2857V50.2857C45.4294 50.2857 42.7435 49.1861 41.0253 47.5394L39.6414 48.9834Z" fill="#FF671D"></path>
</svg>
