<?xml version="1.0" encoding="UTF-8"?>
<svg xmlns="http://www.w3.org/2000/svg" width="88" height="80" viewBox="0 0 88 80" fill="none">
  <path opacity="0.1" d="M83.455 52.7333C99.9444 19.906 68.9356 -2.40549 32.7194 0.207589C-6.13874 3.01128 -12.0775 63.459 24.0541 76.1332C60.1856 88.8075 76.0309 67.5134 83.455 52.7333Z" fill="#3A8DDE"></path>
  <path d="M34.5932 34.8319L31.0339 38.3613L36.1186 43.4034L29 50.4622L33.5763 55L40.6949 47.9412L43.7458 50.9664H47.3051L49.0847 49.2017M34.5932 34.8319L44.5085 25L51.8814 32.3109L50.8644 37.3529L55.4407 35.8403L59 39.3697L49.0847 49.2017M34.5932 34.8319L49.0847 49.2017M33.5763 50.4622L36.1186 47.9412" stroke="#3A8DDE" stroke-width="2"></path>
</svg>
