<svg width="24" height="24" viewBox="0 0 24 24" fill="none" xmlns="http://www.w3.org/2000/svg">
<path d="M22.6754 24C23.4069 24 24 23.4069 24 22.6754V1.32465C24 0.592951 23.4069 -5.72898e-07 22.6754 -5.72898e-07H1.32458C0.592866 -5.72898e-07 0 0.592951 0 1.32465V22.6754C0 23.4069 0.592866 24 1.32458 24H22.6754Z" fill="#3B5998"/>
<path d="M16.5594 24V14.706H19.6791L20.1462 11.0839H16.5594V8.77136C16.5594 7.72268 16.8506 7.00806 18.3545 7.00806L20.2725 7.00716V3.76759C19.9407 3.72353 18.8022 3.62488 17.4776 3.62488C14.7122 3.62488 12.819 5.31283 12.819 8.41275V11.0839H9.69141V14.706H12.819V24H16.5594Z" fill="white"/>
</svg>
