<svg width="24" height="24" viewBox="0 0 24 24" fill="none" xmlns="http://www.w3.org/2000/svg">
<path d="M23.9992 12.27C23.9992 11.48 23.9277 10.73 23.8051 10H12.2598V14.51H18.8702C18.5739 15.99 17.7055 17.24 16.4181 18.09V21.09H20.3619C22.671 19 23.9992 15.92 23.9992 12.27Z" fill="#4285F4"/>
<path d="M12.2589 24C15.5693 24 18.3381 22.92 20.3611 21.09L16.4173 18.09C15.3139 18.81 13.9141 19.25 12.2589 19.25C9.06098 19.25 6.35345 17.14 5.38282 14.29H1.31641V17.38C3.32918 21.3 7.46711 24 12.2589 24Z" fill="#34A853"/>
<path d="M5.38442 14.2901C5.12899 13.5701 4.99617 12.8001 4.99617 12.0001C4.99617 11.2001 5.13921 10.4301 5.38442 9.71011V6.62012H1.31801C0.480203 8.24011 0 10.0601 0 12.0001C0 13.9401 0.480203 15.7601 1.31801 17.3801L5.38442 14.2901Z" fill="#FBBC05"/>
<path d="M12.2589 4.74999C14.0674 4.74999 15.6817 5.35999 16.9588 6.54999L20.4531 3.13C18.3381 1.19 15.5693 0 12.2589 0C7.46711 0 3.32918 2.7 1.31641 6.61999L5.38282 9.70999C6.35344 6.85999 9.06098 4.74999 12.2589 4.74999Z" fill="#EA4335"/>
</svg>
