<svg width="22" height="22" viewBox="0 0 22 22" fill="none" xmlns="http://www.w3.org/2000/svg">
<path fill-rule="evenodd" clip-rule="evenodd" d="M0 6.14286C0 2.75025 2.75025 0 6.14286 0H15.8571C19.2497 0 22 2.75025 22 6.14286V15.8571C22 19.2497 19.2497 22 15.8571 22H6.14286C2.75025 22 0 19.2497 0 15.8571V6.14286ZM6.14286 2C3.85482 2 2 3.85482 2 6.14286V15.8571C2 18.1452 3.85482 20 6.14286 20H15.8571C18.1452 20 20 18.1452 20 15.8571V6.14286C20 3.85482 18.1452 2 15.8571 2H6.14286Z" fill="#1E4F7E"/>
<path fill-rule="evenodd" clip-rule="evenodd" d="M5.42857 11C5.42857 7.92299 7.92299 5.42857 11 5.42857C14.077 5.42857 16.5714 7.92299 16.5714 11C16.5714 14.077 14.077 16.5714 11 16.5714C7.92299 16.5714 5.42857 14.077 5.42857 11ZM11 7.42857C9.02755 7.42857 7.42857 9.02755 7.42857 11C7.42857 12.9724 9.02755 14.5714 11 14.5714C12.9724 14.5714 14.5714 12.9724 14.5714 11C14.5714 9.02755 12.9724 7.42857 11 7.42857Z" fill="#1E4F7E"/>
<path d="M15.8571 5.28571C15.8571 4.65453 16.3688 4.14286 17 4.14286C17.6312 4.14286 18.1429 4.65453 18.1429 5.28571C18.1429 5.9169 17.6312 6.42857 17 6.42857C16.3688 6.42857 15.8571 5.9169 15.8571 5.28571Z" fill="#1E4F7E"/>
</svg>
