<svg width="22" height="22" viewBox="0 0 22 22" fill="none" xmlns="http://www.w3.org/2000/svg">
<path d="M22 4.13074C21.1906 4.49221 20.3206 4.73641 19.4077 4.84627C20.3395 4.2839 21.0553 3.3934 21.3922 2.33224C20.5201 2.85307 19.5541 3.23115 18.526 3.43493C17.7027 2.55173 16.5297 2 15.2315 2C12.7389 2 10.7178 4.0345 10.7178 6.54399C10.7178 6.90015 10.7578 7.24701 10.8348 7.57958C7.08354 7.39009 3.75779 5.58095 1.53161 2.8317C1.14309 3.50281 0.920444 4.28335 0.920444 5.11616C0.920444 6.69273 1.71729 8.08357 2.92839 8.89844C2.18853 8.87485 1.49256 8.67042 0.884034 8.3301C0.883521 8.34903 0.883521 8.36808 0.883521 8.38724C0.883521 10.5889 2.43937 12.4253 4.50418 12.8431C4.12545 12.947 3.7267 13.0024 3.31507 13.0024C3.02423 13.0024 2.74154 12.9739 2.46588 12.9209C3.0403 14.7262 4.70713 16.04 6.68229 16.0765C5.13756 17.2954 3.19144 18.0219 1.07668 18.0219C0.712361 18.0219 0.353101 18.0003 0 17.9583C1.99749 19.2477 4.36998 20 6.9189 20C15.2209 20 19.761 13.0759 19.761 7.07081C19.761 6.87379 19.7566 6.67788 19.7479 6.48286C20.6297 5.84231 21.3948 5.04206 21.9999 4.13074H22Z" fill="#1E4F7E"/>
</svg>
