<svg width="20" height="20" viewBox="0 0 20 20" fill="none" xmlns="http://www.w3.org/2000/svg">
<path d="M10.0005 4C6.17941 4 2.71432 6.10439 0.15626 9.52261C0.054861 9.6595 0 9.82639 0 9.99796C0 10.1695 0.054861 10.3364 0.15626 10.4733C2.71432 13.8956 6.18041 16 10.0005 16C13.8216 16 17.2877 13.8956 19.8437 10.4774C19.9451 10.3405 20 10.1736 20 10.002C20 9.83047 19.9451 9.66358 19.8437 9.52669C17.2877 6.10439 13.8216 4 10.0005 4ZM10.2745 14.2251C7.73845 14.3863 5.64339 12.2819 5.8024 9.72356C5.9334 7.6151 7.63244 5.90649 9.72649 5.77491C12.2626 5.61374 14.3576 7.71812 14.1986 10.2754C14.0636 12.3798 12.3656 14.0894 10.2745 14.2251ZM10.1475 12.2727C8.78147 12.3594 7.65244 11.2271 7.74245 9.85209C7.81245 8.71472 8.72847 7.79667 9.8575 7.7222C11.2235 7.6355 12.3526 8.76879 12.2626 10.1438C12.1896 11.2843 11.2725 12.2033 10.1475 12.2727Z" fill="#c0cad2"/>
</svg>
